<svg width="378" height="467" viewBox="0 0 378 467" fill="none" xmlns="http://www.w3.org/2000/svg">
<path d="M376.097 49.3565C375.398 46.4465 374.232 43.9438 372.6 41.4412C370.911 38.8804 369.92 35.854 367.939 33.526C366.19 31.3725 364.093 29.3355 361.587 28.1133C358.615 26.6583 355.352 25.9599 352.38 24.4467C346.319 21.3039 340.084 18.9176 333.616 16.997C330.294 16.0076 327.031 14.7854 323.709 13.796C319.98 12.6902 316.075 12.05 312.229 11.3516C305.003 10.013 297.719 8.90717 290.435 8.15057C287.172 7.80137 283.908 6.92836 280.645 6.52096C276.974 6.05535 273.361 5.29875 269.69 4.94954C266.31 4.65854 262.988 4.71674 259.608 4.36754C255.762 3.90194 251.974 3.08713 248.245 2.21412C244.923 1.45752 241.543 0.642712 238.164 0.235308C234.609 -0.230295 230.996 0.118908 227.441 0.235308C219.749 0.46811 212.057 0.40991 204.307 0.351709C196.615 0.293509 188.923 0.293509 181.23 0.293509C177.559 0.293509 173.946 0.235308 170.275 0.235308C166.604 0.235308 163.049 1.05011 159.436 1.05011C151.861 1.05011 144.285 0.759112 136.71 1.05011C129.309 1.28292 122.025 2.15592 114.682 3.14533C107.281 4.13474 99.8807 5.06595 92.48 6.28815C85.0792 7.51036 77.9116 9.89658 70.744 12.05C63.7512 14.1452 56.7583 16.415 49.8821 18.743C43.1806 21.0129 36.8871 24.2139 30.6518 27.5313C24.7662 30.7323 18.7058 33.7588 13.6943 38.182C11.305 40.2772 9.14893 42.7798 7.05109 45.1661C4.89497 47.4359 2.68058 49.9385 1.57338 52.9649C0.524461 55.7585 0.466188 58.785 0.466188 61.7532C0.466188 64.2558 0.291367 66.7584 0.291367 69.261C0.116547 69.4356 0 69.7266 0 70.134C0.0582735 74.2081 0.524461 78.1657 1.34029 82.1815C2.27266 86.6048 1.92302 91.319 1.86475 95.8004C1.7482 104.181 1.63166 112.562 2.97195 120.827C3.32159 122.805 4.07914 124.668 4.54533 126.588C5.06979 128.684 5.24461 130.895 5.4777 133.049C5.94389 137.414 7.22591 141.371 8.44965 145.504C10.9554 154.292 13.0533 163.429 14.1604 172.509C14.6849 176.874 14.6849 181.239 15.3842 185.604C16.0835 190.027 17.6569 194.217 18.4727 198.641C19.2885 203.297 19.3468 207.836 20.6288 212.434C21.9108 216.974 23.6007 221.397 23.8921 226.111C24.1835 230.534 23.5425 234.958 24.0669 239.381C24.5914 243.746 25.8734 247.995 26.6892 252.301C27.5633 256.841 27.6799 261.323 27.7964 265.92C27.8547 269.994 28.4957 273.836 29.4864 277.793C30.5936 282.333 31.9339 286.989 32.2835 291.645C32.5749 296.068 32.6914 300.2 33.7986 304.507C34.3231 306.486 34.9641 308.465 35.3137 310.502C35.7216 312.772 35.3137 314.925 35.5468 317.195C35.8964 321.269 37.2367 325.459 38.1691 329.417C38.6353 331.512 39.4511 333.491 39.859 335.586C40.267 337.74 40.2087 340.009 40.2087 342.163C40.267 346.47 40.8497 350.777 41.7238 354.967C42.6562 359.216 43.8216 363.464 44.8123 367.713C45.3367 369.983 45.9778 372.311 46.0943 374.639C46.1526 376.792 45.9778 378.946 46.3857 381.099C46.7936 383.02 47.5511 384.882 47.8425 386.803C48.1921 389.131 47.9591 391.575 48.2504 393.961C48.7166 397.977 49.7655 401.877 50.8144 405.776C51.9799 409.966 52.854 414.157 53.5533 418.464C54.2526 422.363 55.2432 426.146 57.3994 429.58C59.2058 432.432 61.3037 435.284 64.0425 437.262C67.131 439.474 70.5691 440.929 73.5411 443.315C76.6296 445.76 80.3591 446.051 84.0303 447.157C87.7598 448.262 90.3238 450.881 93.3541 453.151C96.5591 455.537 100.23 456.701 104.018 457.633C108.33 458.738 112.584 459.844 116.838 461.066C120.859 462.23 125.055 462.812 129.192 463.278C133.796 463.802 138.399 464.558 143.003 465.199C151.686 466.421 160.485 466.363 169.284 466.945C173.48 467.236 177.21 466.304 181.347 465.897C185.951 465.431 190.554 465.373 195.1 465.373C204.248 465.373 213.223 464.151 222.313 464.384C227.033 464.5 231.754 464.442 236.415 464.442C240.32 464.442 244.69 465.14 248.361 463.627C250.809 462.638 252.79 462.405 255.296 463.278C257.394 463.976 259.375 464.908 261.531 465.373C265.552 466.246 269.69 466.363 273.827 466.246C277.964 466.13 282.102 466.013 286.123 464.791C287.929 464.209 289.736 463.569 291.6 463.22C293.756 462.812 295.971 462.696 298.185 462.405C300.108 462.114 301.915 461.474 303.78 460.775C305.761 460.077 307.742 459.844 309.782 459.379C311.238 459.029 312.521 458.156 313.861 457.574C315.9 456.643 318.115 457.283 320.154 456.527C321.786 455.945 322.951 455.014 324.7 454.723C326.681 454.315 328.371 453.559 330.177 452.569C331.867 451.638 333.616 450.707 335.305 449.717C337.054 448.728 338.918 448.146 340.608 447.098C341.541 446.516 342.357 446.109 343.464 445.934C344.163 445.818 344.746 445.76 345.387 445.411C346.785 444.654 348.184 443.665 349.524 442.733C350.34 442.209 350.864 441.569 351.272 440.696C351.913 439.241 352.613 437.844 353.195 436.389C353.895 434.818 353.662 433.072 353.662 431.384C353.662 429.173 353.895 427.019 354.361 424.866C355.235 420.85 356.575 416.892 357.1 412.818C357.333 410.723 357.216 408.686 357.391 406.591C357.566 404.263 358.44 402.168 358.964 399.898C359.839 396.057 359.431 391.924 359.431 388.025C359.431 378.946 358.848 369.808 360.363 360.845C361.062 356.597 360.829 352.348 360.829 348.041C360.829 343.211 360.829 338.38 360.887 333.549C360.887 328.719 360.946 323.888 360.946 319.057C360.946 314.46 360.363 309.629 361.529 305.147C362.577 301.073 363.626 296.999 364.209 292.809C364.5 290.597 364.559 288.444 364.967 286.232C365.433 283.962 366.016 281.751 366.423 279.481C367.939 270.576 369.745 261.788 371.377 252.883C372.95 244.037 372.426 235.074 372.426 226.169C372.426 216.857 372.076 207.487 372.193 198.175C372.309 188.863 373.125 179.551 373.183 170.239C373.241 160.752 373.241 151.324 373.067 141.837C373.008 137.297 372.892 132.758 372.95 128.276C373.067 123.737 373.824 119.488 374.407 115.007C374.99 110.525 374.873 106.044 374.698 101.562C374.523 96.9062 374.698 92.6576 375.398 88.118C375.864 85.3244 375.864 82.6471 376.33 79.9699C376.796 77.4673 377.67 74.6737 377.321 72.1129C377.495 70.716 377.67 69.3774 377.787 67.9806C378.428 61.6368 377.554 55.4675 376.097 49.3565ZM3.14677 66.7584C3.26331 63.2082 2.97195 59.4252 3.67123 55.9913C4.31224 52.7321 6.23526 50.1713 8.39138 47.7269C10.6058 45.2242 12.8202 42.6052 15.3259 40.3936C20.2209 35.9704 26.2813 33.0022 32.0504 29.9175C38.3439 26.5419 44.6375 23.3991 51.4555 21.0711C58.39 18.743 65.3245 16.5314 72.3756 14.378C79.2519 12.2828 86.1282 10.0712 93.2375 8.90717C99.9972 7.80137 106.815 6.98656 113.575 6.05535C120.976 5.00775 128.318 4.13474 135.777 3.84374C143.061 3.55273 150.287 3.72733 157.571 3.78554C160.718 3.84374 163.632 3.43633 166.72 3.08713C170.566 2.67973 174.587 2.97073 178.433 2.97073C192.885 2.97073 207.395 3.26173 221.847 3.02893C225.46 2.97073 229.131 2.79613 232.744 2.67973C236.357 2.56333 239.737 3.14533 243.292 3.84374C249.877 5.24055 256.345 6.92836 263.046 7.27756C269.981 7.62676 276.799 8.44157 283.617 9.54738C286.414 10.013 289.095 10.595 291.892 10.886C295.679 11.2934 299.467 11.8754 303.255 12.5156C310.364 13.6214 317.707 14.669 324.583 16.8806C331.226 19.0341 338.277 20.7219 344.571 23.7483C347.135 24.9705 349.757 26.1345 352.263 27.4149C355.235 28.9281 358.673 29.3355 361.47 31.1397C363.801 32.653 366.016 35.1556 367.298 37.6C368.754 40.4518 370.677 43.129 372.076 45.9809C373.475 48.8909 373.999 52.2665 374.465 55.4093C374.99 58.494 375.106 61.4622 375.223 64.605C375.339 67.6314 374.582 70.4832 374.232 73.4515C374.057 74.7901 373.766 75.9541 373.475 77.2345C373.067 79.0387 373.241 81.3085 372.251 82.8799C371.61 83.9275 371.085 84.8006 370.619 85.9064C369.92 87.4778 368.521 88.7582 367.531 90.0968C366.715 91.2026 366.016 92.4248 365.025 93.4142C363.976 94.5782 362.752 95.5094 361.82 96.848C361.062 98.0121 360.713 99.3507 359.78 100.398C358.906 101.329 357.799 101.97 356.75 102.668C353.603 104.705 349.816 105.404 346.319 106.568C339.909 108.721 333.324 110.409 326.914 112.504C320.504 114.541 313.744 115.123 307.159 116.112C299.817 117.16 292.474 118.44 285.074 119.313C270.447 121.001 255.704 120.245 241.019 120.245C233.91 120.245 226.8 120.419 219.691 120.128C212.348 119.837 205.123 120.361 197.78 120.303C194.225 120.245 190.846 119.721 187.349 119.313C183.736 118.906 180.123 118.906 176.452 118.964C169.284 119.081 162.117 119.197 154.949 118.673C151.744 118.44 148.539 118.615 145.334 118.499C141.43 118.382 137.584 117.742 133.738 117.102C127.036 115.996 120.393 115.239 113.575 114.657C106.524 114.075 99.6476 112.388 92.6548 111.398C89.6246 110.991 86.6526 110.467 83.6224 110.118C79.8346 109.71 75.9886 109.71 72.2591 109.245C68.8792 108.837 65.5576 107.906 62.236 107.033C58.5065 106.102 54.8353 105.986 51.0475 105.462C44.4626 104.472 37.8195 103.075 31.4094 101.446C24.9993 99.8745 19.4051 96.4988 14.1022 92.6576C8.74102 88.7 5.30288 82.6471 4.07914 76.1869C3.49641 73.1023 3.08849 70.0758 3.14677 66.7584ZM55.2432 411.596C54.3691 407.464 53.0288 403.506 52.0965 399.374C51.6303 397.337 51.2224 395.242 50.9893 393.147C50.7562 391.051 50.931 388.956 50.6979 386.861C50.4648 385.057 49.8821 383.311 49.4159 381.565C48.7749 379.12 49.008 376.734 48.8914 374.231C48.6583 370.099 47.2598 365.909 46.2691 361.893C45.2202 357.644 44.113 353.454 43.472 349.089C42.831 344.724 43.2389 340.359 42.7144 335.994C42.19 332.036 40.7331 328.02 39.859 324.121C39.4511 322.2 38.8684 320.338 38.5188 318.359C38.1108 316.147 38.5188 313.994 38.3439 311.782C37.9943 307.592 36.1878 303.634 35.5468 299.444C34.9058 295.137 35.1389 290.772 34.3231 286.465C33.5072 282.158 32.2252 277.91 31.3511 273.603C30.477 269.354 30.7101 265.047 30.5353 260.682C30.3605 256.55 29.7195 252.534 28.7871 248.518C27.7382 244.037 26.631 239.614 26.6892 234.958C26.6892 230.651 27.0389 226.402 26.2813 222.154C25.5238 218.021 23.9504 214.064 22.9597 209.99C24.0669 207.196 29.3698 206.032 31.8173 205.043C35.9547 203.413 39.859 201.201 44.1713 199.979C49.2993 198.466 54.3109 198.757 59.5555 199.572C64.3922 200.328 69.1123 201.667 72.026 205.857C73.1915 207.487 74.1238 209.291 75.231 210.979C76.3965 212.783 77.9116 214.355 79.0771 216.159C81.5828 220.175 82.9814 224.773 85.0792 228.963C87.4685 233.794 90.149 238.566 91.1397 243.921C92.0721 249.275 94.1116 254.397 94.7526 259.751C95.3936 264.873 96.2677 269.878 97.7829 274.825C99.298 280.005 101.279 285.01 102.853 290.132C106.116 300.608 108.447 311.375 111.069 322.026C112.409 327.438 112.526 333.025 113.458 338.496C114.333 343.909 115.906 348.972 115.964 354.501C115.964 357.062 115.964 359.623 116.314 362.126C116.722 364.978 117.421 367.771 117.771 370.623C118.062 373.067 118.12 375.395 118.703 377.782C119.344 380.226 120.276 382.67 120.684 385.173C121.209 388.49 120.976 391.982 120.976 395.358C120.976 398.385 120.917 401.411 120.917 404.437C120.917 404.496 120.917 404.554 120.917 404.554C117.421 405.194 113.925 405.834 110.486 406.765C105.067 408.162 99.939 409.675 94.403 410.432C89.0418 411.189 83.739 413.284 78.844 415.554C76.2217 416.776 73.6576 417.998 70.9188 419.046C68.9375 419.802 67.7138 421.025 66.1986 422.421C64.5087 423.935 62.5857 425.099 61.3619 427.077C60.954 427.718 60.6044 428.416 60.3713 429.114C59.2058 427.368 58.2735 425.506 57.6324 423.644C56.3504 419.802 56.0591 415.612 55.2432 411.596ZM316.075 221.921C316.658 224.016 317.474 226.053 318.173 228.148C319.572 232.397 320.737 236.762 321.786 241.127C322.835 245.608 323.126 250.148 323.942 254.629C324.7 258.936 326.273 263.01 326.972 267.317C328.429 276.629 330.818 285.767 332.217 295.079C333.674 304.74 333.382 314.576 333.324 324.295C333.149 343.676 333.208 363.115 333.208 382.496C333.208 398.792 333.208 415.088 333.208 431.442C330.236 429.813 327.205 428.416 324.175 426.903C322.194 425.913 320.387 425.04 318.231 424.575C315.667 424.051 313.22 423.411 310.714 422.48C305.994 420.675 301.157 418.697 296.554 416.601C292.067 414.564 287.696 412.876 282.976 411.538C282.976 374.464 282.976 337.332 282.976 300.259C282.976 293.566 282.976 286.931 282.976 280.238C282.976 274.068 283.034 267.899 281.461 261.905C280.645 258.762 280.12 255.735 279.596 252.534C279.072 249.508 277.906 246.772 277.032 243.804C276.1 240.545 276.682 237.46 276.274 234.143C275.925 231.349 275.226 228.497 274.351 225.82C273.361 222.968 272.545 220.466 272.137 217.498C271.787 214.529 271.321 211.561 270.272 208.767C269.864 207.603 269.34 206.439 268.815 205.334C273.244 205.334 277.731 205.334 282.16 205.334C286.589 205.334 291.018 205.101 295.446 205.392C299.118 205.683 303.255 206.265 306.402 208.36C309.315 210.281 312.171 213.191 313.919 216.159C314.968 217.963 315.492 219.942 316.075 221.921ZM267.825 210.281C268.757 213.016 269.107 215.926 269.456 218.778C269.806 221.572 270.68 223.958 271.613 226.635C272.545 229.254 273.302 232.28 273.536 235.016C273.769 237.868 273.302 240.603 274.002 243.397C274.643 246.016 275.808 248.518 276.449 251.137C277.149 254.106 277.265 257.19 278.023 260.1C278.838 263.243 279.596 266.211 279.887 269.471C280.12 272.439 280.179 275.465 280.179 278.492C280.179 284.835 280.179 291.179 280.179 297.523C280.179 323.655 280.179 349.845 280.179 375.977C280.179 387.559 280.179 399.083 280.179 410.665C276.274 409.443 272.487 407.988 268.466 406.998C265.843 406.358 263.221 405.776 260.599 405.252C258.035 404.728 255.413 404.612 252.849 403.914C250.751 403.332 248.769 402.691 246.613 402.575C243.7 402.4 240.844 402.75 237.989 402.051C235.774 401.527 233.677 400.829 231.346 400.654C228.49 400.422 225.635 400.48 222.779 400.48C217.477 400.538 212.174 400.713 206.871 400.713C200.577 400.713 194.342 400.713 188.048 400.713C188.048 395.766 188.048 390.818 188.048 385.871C188.048 373.242 187.932 360.612 188.165 348.041C188.282 341.93 187.174 335.994 187.116 329.941C187.058 323.422 187 316.904 187.116 310.385C187.233 304.391 187.582 298.454 186.766 292.46C186.417 289.724 186.3 287.105 186.125 284.37C185.951 281.751 184.902 279.423 184.261 276.862C183.62 274.359 183.328 271.74 182.979 269.18C182.571 266.095 181.813 263.243 181.056 260.217C180.298 257.307 179.948 254.338 179.482 251.428C178.958 248.169 178.084 245.026 177.326 241.825C175.811 235.773 175.461 229.487 173.655 223.55C172.839 220.931 171.441 218.487 170.799 215.81C170.158 213.249 169.867 211.27 168.235 209.059C168.177 209 168.119 208.942 168.119 208.884C168.177 208.826 168.235 208.709 168.294 208.651C169.168 207.196 170.799 206.265 172.14 205.334C174.179 203.879 176.394 202.54 178.666 201.434C183.853 198.932 188.981 196.313 194.284 194.043C200.111 191.54 205.764 189.154 212.115 188.397C218.118 187.699 224.061 186.069 230.064 185.72C235.891 185.313 242.534 185.138 248.07 187.175C252.732 188.863 256.928 191.831 259.9 195.789C263.046 200.037 266.135 205.275 267.825 210.281ZM167.128 212.725C167.536 213.715 167.594 214.82 167.828 215.868C168.41 218.545 169.692 220.931 170.625 223.492C172.548 229.079 172.781 235.132 174.121 240.836C174.82 243.746 175.694 246.598 176.277 249.566C176.86 252.476 177.21 255.444 177.734 258.354C178.258 261.148 179.249 263.883 179.715 266.677C180.182 269.354 180.473 272.09 180.939 274.825C181.405 277.444 182.396 279.888 182.979 282.507C183.561 285.185 183.328 288.153 183.678 290.888C184.435 296.534 184.435 302.063 184.261 307.766C184.086 313.878 184.202 319.989 184.202 326.158C184.202 332.036 185.135 337.798 185.251 343.676C185.368 349.554 185.135 355.491 185.135 361.427C185.135 367.538 185.135 373.708 185.135 379.819C185.135 386.803 185.135 393.787 185.135 400.771C181.289 400.771 177.443 400.771 173.655 400.713C162.758 400.596 151.744 399.956 140.847 401.178C135.661 401.76 130.591 402.75 125.463 403.739C124.88 403.855 124.297 403.972 123.773 404.088C123.773 398.967 123.773 393.787 123.715 388.665C123.598 383.252 121.209 378.48 120.743 373.184C120.276 367.364 118.761 361.776 118.761 355.898C118.761 353.396 118.703 350.951 118.353 348.449C117.887 345.48 117.013 342.57 116.489 339.602C115.44 334.015 115.323 328.311 114.099 322.724C113.517 319.989 112.584 317.37 112.002 314.634C111.477 311.782 110.778 308.989 110.02 306.195C108.563 300.666 107.223 295.021 105.533 289.55C103.843 284.021 101.687 278.608 100.114 273.021C99.3562 270.402 98.7152 267.725 98.249 265.047C97.7246 262.137 97.608 259.111 97.0253 256.201C96.5008 253.698 95.5685 251.312 94.9275 248.868C94.2282 246.249 93.9951 243.571 93.3541 240.952C92.0721 235.831 89.1001 231.175 86.8857 226.46C84.9044 222.212 83.4476 217.73 80.767 213.831C81.3497 213.365 82.1073 212.958 82.69 212.492C83.331 211.969 83.8555 211.387 84.4382 210.805C85.662 209.582 86.8857 209.117 88.5174 208.593C90.9066 207.778 93.2958 206.032 95.5102 204.81C97.8994 203.529 99.9972 201.958 102.212 200.445C107.165 197.011 112.759 196.778 118.645 196.138C121.384 195.847 124.122 195.614 126.803 194.974C129.833 194.217 132.164 193.81 135.311 194.334C138.05 194.799 140.789 194.741 143.528 195.032C146.791 195.381 149.297 196.778 152.035 198.466C154.192 199.805 156.523 200.794 158.62 202.307C161.126 204.111 162.816 206.847 164.623 209.291C165.497 210.223 166.604 211.387 167.128 212.725ZM115.906 457.865C111.827 456.585 107.689 455.712 103.552 454.606C99.4145 453.5 96.2095 451.871 92.8879 449.194C90.149 446.924 87.4102 445.12 83.972 444.246C82.1656 443.781 80.2425 443.49 78.4361 442.85C76.3965 442.151 75.0562 440.871 73.4246 439.649C70.4526 437.437 66.7814 436.273 64.1008 433.712C63.5763 433.188 63.0519 432.606 62.5274 432.024C62.8771 430.86 63.3432 429.58 64.0425 428.532C65.0332 427.019 66.6648 426.03 68.0634 424.866C69.7533 423.353 71.0353 422.247 73.1915 421.432C75.2893 420.617 77.2706 419.628 79.2519 418.696C83.739 416.543 88.6922 414.564 93.5872 413.633C95.8016 413.226 98.0742 413.109 100.23 412.644C102.62 412.178 105.009 411.48 107.34 410.781C111.827 409.443 116.372 408.628 120.917 407.697C120.917 412.993 120.917 418.347 120.917 423.644C120.917 430.162 120.917 436.68 120.917 443.257C120.917 446.4 120.801 449.485 121.209 452.569C121.5 454.955 122.025 457.283 122.491 459.611C120.276 459.088 118.062 458.564 115.906 457.865ZM180.473 463.22C178.725 463.394 176.976 463.685 175.228 464.035C172.897 464.5 170.741 464.267 168.41 464.151C159.494 463.511 150.52 463.685 141.663 462.23C136.302 461.357 130.882 460.892 125.521 460.077C124.938 457.283 124.239 454.49 123.948 451.696C123.598 448.728 123.773 445.702 123.773 442.733C123.773 436.68 123.773 430.569 123.773 424.517C123.773 418.696 123.831 412.876 123.889 407.056C128.085 406.183 132.281 405.369 136.476 404.67C146.849 403.041 157.338 403.332 167.828 403.506C173.655 403.564 179.482 403.623 185.251 403.623C185.251 423.353 185.251 443.141 185.251 462.871C183.62 462.929 182.046 463.045 180.473 463.22ZM271.03 463.511C266.776 463.511 262.522 463.045 258.501 461.532C254.713 460.077 251.625 459.32 247.779 460.95C245.681 461.823 243.583 461.765 241.31 461.707C238.921 461.648 236.59 461.648 234.201 461.648C229.656 461.648 225.11 461.648 220.565 461.532C216.02 461.416 211.591 461.648 207.046 462.172C202.617 462.696 198.246 462.58 193.759 462.58C191.836 462.58 189.913 462.638 187.99 462.696C187.99 442.966 187.99 423.294 187.99 403.564C191.894 403.564 195.857 403.564 199.761 403.564C205.006 403.564 210.251 403.623 215.495 403.506C220.623 403.39 225.751 403.157 230.879 403.506C233.385 403.681 235.6 404.496 238.047 405.019C240.436 405.543 242.884 405.427 245.331 405.427C247.779 405.427 249.877 406.067 252.149 406.707C254.713 407.406 257.336 407.58 259.9 408.046C264.853 409.035 269.864 410.141 274.643 411.829C276.508 412.469 278.372 413.051 280.237 413.633C280.237 430.162 280.237 446.691 280.237 463.22C277.149 463.569 274.002 463.511 271.03 463.511ZM328.138 450.59C326.273 451.58 324.641 451.754 322.66 452.336C321.786 452.569 321.145 452.977 320.387 453.384C319.222 454.024 318.29 454.141 316.949 454.199C313.453 454.432 310.772 456.469 307.334 456.992C305.528 457.283 303.838 457.924 302.09 458.564C299.875 459.32 297.777 459.728 295.446 459.961C291.426 460.368 287.871 461.59 283.967 462.58C283.675 462.638 283.326 462.696 283.034 462.812C283.034 446.691 283.034 430.569 283.034 414.506C284.782 415.03 286.531 415.554 288.279 416.194C293.349 417.998 298.36 420.384 303.372 422.538C308.208 424.575 312.812 426.321 317.882 427.485C320.737 428.125 323.301 429.755 325.923 430.977C328.371 432.141 330.818 433.305 333.149 434.643C333.208 434.643 333.208 434.702 333.266 434.702C333.266 439.067 333.266 443.432 333.266 447.797C331.518 448.728 329.828 449.659 328.138 450.59ZM342.939 443.141C341.133 443.548 339.967 444.363 338.336 445.236C337.578 445.643 336.762 445.992 335.946 446.342C335.946 443.024 335.946 439.707 335.946 436.389C337.345 437.262 338.685 438.194 339.967 439.183C341.366 440.231 342.998 441.278 344.105 442.675C343.755 442.908 343.347 443.082 342.939 443.141ZM368.638 252.534C367.064 261.264 365.316 269.936 363.801 278.724C363.102 282.857 362.053 286.756 361.703 290.947C361.295 295.253 360.246 299.444 359.139 303.576C357.974 307.766 358.207 311.899 358.265 316.206C358.265 320.862 358.265 325.576 358.265 330.232C358.265 334.888 358.207 339.602 358.207 344.258C358.207 348.798 358.615 353.512 358.149 357.993C357.682 362.184 356.75 366.083 356.75 370.332C356.75 374.697 356.808 379.12 356.808 383.485C356.808 387.85 357.041 392.215 356.808 396.58C356.692 398.443 356.167 400.189 355.643 401.993C355.002 404.088 354.769 406.125 354.711 408.279C354.477 416.659 351.039 424.342 351.098 432.723C351.098 434.818 350.457 435.691 349.641 437.495C349.058 438.834 349.116 439.881 347.776 440.638C347.426 440.813 347.077 441.045 346.727 441.278C344.629 438.31 340.783 436.098 337.869 434.178C337.287 433.77 336.704 433.421 336.121 433.072C336.063 397.744 335.888 362.417 336.18 327.089C336.296 317.195 336.646 307.184 335.422 297.407C334.198 287.92 331.634 278.666 330.177 269.18C329.828 266.968 329.536 264.815 329.07 262.661C328.546 260.217 327.613 257.889 327.089 255.444C326.04 251.079 325.982 246.481 324.991 242.058C324 237.519 322.777 233.037 321.378 228.614C320.504 225.82 319.688 222.852 318.698 220C320.213 220.058 321.786 220.291 323.301 219.942C325.399 219.476 327.264 218.254 328.954 216.974C332.625 214.18 335.655 210.572 339.21 207.662C343.405 204.228 347.776 202.656 353.195 202.715C358.615 202.773 364.151 202.54 369.512 203.704C369.512 210.863 369.745 218.021 369.745 225.18C369.629 234.318 370.27 243.571 368.638 252.534ZM372.193 90.737C370.852 99.2925 372.892 108.023 371.377 116.636C369.862 125.308 370.211 133.922 370.328 142.652C370.444 151.789 370.503 160.985 370.444 170.122C370.386 179.318 369.629 188.456 369.454 197.593C369.454 198.641 369.454 199.688 369.395 200.794C364.559 199.863 359.664 200.037 354.769 199.921C349.699 199.805 345.328 200.27 340.9 202.889C337.112 205.217 334.023 208.418 330.818 211.503C329.012 213.249 327.089 214.995 324.933 216.217C322.544 217.498 320.154 216.974 317.532 217.148C317.416 216.916 317.357 216.683 317.241 216.45C314.094 209.175 306.868 204.17 299.176 203.006C294.456 202.249 289.736 202.482 284.957 202.54C279.13 202.54 273.244 202.54 267.417 202.54C265.902 199.63 264.154 196.836 262.289 194.334C259.55 190.609 256.054 187.699 251.916 185.72C246.672 183.218 241.369 182.752 235.658 182.752C228.607 182.752 222.08 184.149 215.146 185.196C211.766 185.72 208.386 185.953 205.064 186.826C201.626 187.757 198.363 189.212 195.1 190.609C188.981 193.17 183.095 196.138 177.151 198.99C174.704 200.154 172.431 201.667 170.158 203.18C168.76 204.111 167.303 205.159 166.254 206.498C165.264 205.101 164.215 203.762 163.166 202.482C161.534 200.503 159.436 199.223 157.222 198C152.385 195.381 148.364 192.413 142.712 192.006C140.963 191.889 139.157 191.889 137.409 191.715C135.835 191.54 134.32 191.075 132.747 191.016C129.775 190.842 127.036 192.064 124.122 192.588C117.771 193.694 110.428 192.995 104.484 195.789C101.92 197.011 99.7642 198.873 97.3749 200.445C94.6944 202.191 91.7807 203.646 88.9836 205.159C86.944 206.265 84.9044 206.556 83.1562 208.185C82.4569 208.826 81.8159 209.524 81.1166 210.164C80.4756 210.746 79.7764 211.096 79.1354 211.619C78.2612 210.455 77.3871 209.35 76.6296 208.069C75.4641 206.148 74.3569 204.228 72.9001 202.54C69.5202 198.699 63.9843 197.535 59.1476 196.895C53.4368 196.138 48.1921 195.963 42.6562 197.709C37.9943 199.164 33.6821 201.551 29.0785 203.297C26.9223 204.111 24.1835 205.101 22.2022 206.672C21.6777 203.238 21.5612 199.688 20.8036 196.254C19.813 191.715 18.2979 187.35 17.8317 182.752C17.3655 178.561 17.2489 174.313 16.6662 170.122C15.3842 161.392 13.5194 152.546 10.9554 144.107C9.67339 139.8 8.62447 135.668 8.15828 131.186C7.98346 129.44 7.75037 127.694 7.34246 126.006C6.75972 123.795 5.88562 121.758 5.65252 119.43C5.18634 115.414 4.77842 111.282 4.6036 107.266C4.42878 102.901 4.72015 98.5941 4.77842 94.229C4.77842 91.61 4.89497 88.991 4.72015 86.372C5.41943 87.6524 6.23526 88.8746 7.10936 90.0386C10.8389 94.8692 16.5497 98.3613 21.8525 101.213C27.9713 104.472 34.9641 105.404 41.6655 106.8C44.9288 107.499 48.1921 108.197 51.5137 108.605C55.4763 109.128 59.2641 109.478 63.1684 110.467C66.4317 111.282 69.7533 112.097 73.1332 112.388C76.921 112.737 80.7087 112.795 84.4965 113.261C91.839 114.134 99.0066 115.589 106.291 116.811C113.517 118.033 120.859 118.033 128.085 119.197C135.311 120.361 142.304 121.525 149.646 121.525C153.201 121.525 156.697 121.932 160.194 122.049C164.04 122.165 167.944 122.049 171.848 122.049C175.52 122.049 179.191 121.874 182.862 121.991C186.65 122.107 190.379 122.864 194.167 123.155C201.743 123.737 209.318 122.689 216.952 122.98C232.336 123.562 247.72 123.271 263.105 123.329C270.738 123.387 278.314 123.038 285.89 122.165C293.232 121.292 300.516 120.012 307.859 118.964C314.502 118.033 321.203 117.393 327.613 115.356C334.606 113.086 341.716 111.165 348.708 108.837C354.011 107.091 360.596 105.636 363.335 100.165C364.675 97.5465 366.89 95.9168 368.58 93.5306C369.629 92.0756 370.677 90.6788 371.726 89.282C372.076 88.8164 372.309 88.409 372.542 87.9434C372.542 88.8746 372.367 89.8058 372.193 90.737Z" fill="#111111"/>
</svg>
